# xmcd
#
# Track frame offsets:
#   150
#   13590
#   32636
#   63710
#   85630
#   108745
#   132503
#   147433
#   163787
#   180513
#   195345
#   209925
#   225423
#
# Disc length: 3314 seconds
#
# Revision: 0
# Processed by: cddbd v1.5.2PL0 Copyright (c) Steve Scherf et al.
# Submitted via: uFREEDB ActiveX Control 1.5
#
DISCID=b80cf00d
DTITLE=Jamile Zeidan - Se Prepare
DYEAR=1900
DGENRE=Gospel and Religious
TTITLE0=Oração
TTITLE1=Se prepare
TTITLE2=Cadê o amor ?
TTITLE3=Mão pra cima
TTITLE4=Amor verdadeiro
TTITLE5=Que mundo é este ?
TTITLE6=Por você
TTITLE7=Pecados
TTITLE8=Sou livre
TTITLE9=Nome sobre todo nome
TTITLE10=Funk do Manuel
TTITLE11=Game over
TTITLE12=Amor verdadeiro (pb)
EXTD=
EXTT0=
EXTT1=
EXTT2=
EXTT3=
EXTT4=
EXTT5=
EXTT6=
EXTT7=
EXTT8=
EXTT9=
EXTT10=
EXTT11=
EXTT12=
PLAYORDER=
